<svg width="320" height="171" viewBox="0 0 320 171" fill="none" xmlns="http://www.w3.org/2000/svg">
<path d="M134.702 171C131.072 171 127.411 169.137 123.532 167.168C121.88 166.326 120.169 165.457 118.404 164.705C114.134 162.886 110.31 162.758 106.934 162.644C104.605 162.568 102.592 162.5 100.573 161.921C94.3686 160.145 89.0598 156.358 83.4397 152.348C77.2601 147.938 70.8693 143.379 62.9518 141.415C59.6045 140.585 56.2732 140.474 53.457 140.474C52.396 140.474 51.3325 140.492 50.2727 140.511C49.2747 140.527 48.2803 140.545 47.2947 140.545C42.7257 140.545 39.1598 140.122 36.6066 138.061C34.8502 136.642 33.5323 134.332 32.139 131.89C31.3596 130.524 30.5543 129.11 29.6056 127.723C26.4275 123.072 22.0525 119.346 16.9537 116.94C16.0248 116.503 15.0639 116.107 14.1016 115.712C11.9673 114.836 9.9539 114.009 8.80765 112.777C6.55715 110.357 7.08952 106.562 8.1456 100.572C9.03987 95.5026 10.0515 89.7542 8.174 84.2911C7.09692 81.1557 5.19722 78.5587 3.52108 76.2705C1.70413 73.7871 0.134219 71.6421 0.00823012 69.5391C-0.19928 66.0913 3.55568 60.2873 6.92525 57.594C8.58904 56.2628 10.4467 55.0785 12.4119 53.8214C15.6098 51.7764 18.9164 49.6623 21.7783 46.6763C24.3524 43.9929 26.2114 40.9724 28.0086 38.0519C29.8045 35.1338 31.5029 32.3751 33.699 30.3548C38.4928 25.945 45.6173 24.9312 53.1605 23.858C58.4743 23.1035 63.9696 22.3194 69.1722 20.3139C73.541 18.632 77.3651 16.2067 81.0657 13.8591C83.5793 12.2637 85.9533 10.7571 88.4249 9.51605C95.106 6.16332 102.942 4.53451 112.383 4.53451C115.529 4.53451 118.794 4.71356 122.365 5.07909C123.945 5.24209 125.584 5.32608 127.232 5.32608C134.138 5.32608 140.587 3.91089 146.823 2.54387C152.791 1.23612 158.431 0 164.229 0C164.655 0 165.082 0.00617233 165.508 0.020991C170.052 0.170413 174.592 1.56337 179.398 3.04153C183.923 4.43078 188.599 5.86696 193.601 6.34486C194.993 6.47699 196.472 6.53998 198.128 6.53998C199.953 6.53998 201.781 6.46341 203.607 6.38191C205.294 6.30905 206.978 6.23248 208.653 6.23248C211.291 6.23248 213.38 6.43253 215.227 6.85733C219.254 7.78844 223.047 10.0199 227.06 12.3798C230.461 14.3778 233.975 16.4462 237.914 17.8886C242.478 19.5619 247.143 20.2262 251.653 20.8696C256.006 21.4895 260.119 22.0786 263.838 23.5123C266.729 24.6274 269.325 26.5415 272.072 28.5679C274.268 30.1881 276.538 31.8638 279.137 33.2691L280.556 34.0311C285.014 36.4169 288.238 38.1408 291.124 41.9097C292.129 43.2199 293.057 44.6561 294.038 46.1774C296.226 49.5623 298.487 53.0644 301.993 55.8355C304.086 57.4878 306.369 58.6869 308.576 59.8464C311.84 61.5642 314.658 63.0435 315.544 65.3046C316.137 66.8174 315.923 68.8772 315.674 71.2667C315.452 73.3919 315.202 75.8012 315.523 78.3018C315.907 81.3175 317.062 83.9688 318.078 86.3089C318.876 88.1439 319.63 89.8752 319.889 91.483C320.701 96.5177 316.899 101.829 313.566 105.4C312.469 106.578 311.324 107.719 310.176 108.865C306.342 112.692 302.374 116.646 299.846 121.95C298.984 123.761 298.37 125.566 297.777 127.308C297.075 129.374 296.413 131.326 295.444 132.901C292.299 138.02 285.647 140.055 278.608 142.211C274.833 143.367 270.929 144.56 267.283 146.303C262.997 148.347 259.283 151.078 255.691 153.715C252.915 155.757 250.292 157.684 247.508 159.244C244.423 160.967 241.768 161.704 238.629 161.704C236.344 161.704 233.888 161.322 230.902 160.749C227.897 160.17 224.778 159.88 221.631 159.88C216.729 159.88 211.873 160.575 207.191 161.948C204.009 162.883 201.043 164.182 198.17 165.438C194.148 167.199 190.353 168.862 186.493 169.292C185.746 169.374 184.996 169.412 184.252 169.412C180.226 169.412 176.029 168.35 171.585 167.225C168.001 166.316 164.295 165.38 160.506 164.98C159.23 164.847 158.036 164.781 156.855 164.781C154.34 164.781 152.028 165.08 149.779 165.696C147.264 166.384 145.027 167.429 142.866 168.443C140.368 169.613 138.008 170.717 135.761 170.944C135.41 170.982 135.054 171 134.702 171Z" fill="#FFE657"/>
</svg>
