<svg width="374" height="238" viewBox="0 0 374 238" fill="none" xmlns="http://www.w3.org/2000/svg">
<path d="M372.077 115.873C371.992 115.031 371.899 114.183 371.794 113.332C371.046 107.235 372.154 112.777 367.94 108.425C365.458 105.86 362.407 104.617 359.318 103.003C358.923 102.797 358.566 102.58 358.229 102.357C345.781 85.6479 325.505 70.5806 297.859 59.0604C264.717 45.2502 226.054 38.6458 187.66 38.7094C187.333 38.707 187.005 38.7033 186.676 38.7021C186.349 38.7033 186.021 38.707 185.693 38.7094C147.299 38.6458 108.637 45.2502 75.4943 59.0604C47.8486 70.5806 27.573 85.6479 15.1241 102.357C14.7886 102.58 14.4303 102.797 14.036 103.003C10.9478 104.617 7.89665 105.861 5.41478 108.425C1.20124 112.777 0.77101 118.988 0.0232141 125.086C-0.0810459 125.937 0.11549 151.378 8.21302 166.049C15.9942 180.146 28.7535 190.94 41.7057 199.879C52.0574 207.022 63.3043 212.803 74.9011 217.635C108.498 231.636 147.767 238.244 186.679 237.993C225.592 238.244 264.86 231.635 298.456 217.635C310.053 212.803 321.301 207.022 331.652 199.879C344.605 190.939 357.363 180.145 365.144 166.049C373.238 151.378 373.771 132.368 372.077 115.873Z" fill="#43250A"/>
<path d="M372.848 129.514C372.779 130.438 372.686 131.384 372.548 132.307C372.294 134.455 371.924 136.602 371.394 138.75C371.21 139.627 370.977 140.481 370.723 141.359C369.846 144.545 368.715 147.709 367.284 150.825C366.96 151.61 366.591 152.396 366.198 153.181C365.298 155.005 364.327 156.806 363.267 158.606C362.828 159.344 362.367 160.083 361.882 160.823C360.15 163.547 358.21 166.226 356.041 168.881C355.51 169.552 354.955 170.221 354.354 170.891C353.016 172.46 351.608 174.008 350.106 175.531C349.483 176.178 348.836 176.824 348.19 177.448C345.788 179.826 343.202 182.135 340.454 184.398C339.739 184.998 338.999 185.576 338.261 186.129C336.552 187.515 334.775 188.83 332.928 190.124C332.143 190.701 331.335 191.255 330.527 191.81C327.549 193.841 324.409 195.827 321.106 197.743C320.229 198.251 319.329 198.759 318.429 199.267C316.374 200.421 314.273 201.553 312.103 202.64C311.156 203.124 310.209 203.609 309.24 204.048C305.707 205.802 302.035 207.465 298.203 209.058C298.133 209.082 298.065 209.128 297.995 209.15C297.026 209.566 296.055 209.959 295.063 210.306C292.661 211.322 290.214 212.245 287.744 213.122C286.659 213.538 285.574 213.906 284.466 214.3C280.287 215.731 276.038 217.069 271.721 218.294C270.52 218.664 269.319 218.987 268.118 219.286C265.325 220.071 262.507 220.788 259.667 221.434C258.398 221.757 257.128 222.058 255.857 222.311C251.009 223.42 246.091 224.366 241.127 225.174C239.742 225.428 238.355 225.658 236.97 225.867C233.715 226.375 230.436 226.837 227.134 227.205C225.657 227.39 224.178 227.576 222.702 227.713C216.976 228.338 211.203 228.799 205.408 229.076C203.744 229.192 202.105 229.261 200.443 229.307C196.541 229.469 192.616 229.537 188.713 229.537C186.89 229.537 185.089 229.513 183.288 229.492C176.107 229.4 168.949 229.053 161.862 228.474C159.737 228.313 157.613 228.105 155.489 227.897C150.316 227.389 145.168 226.743 140.088 225.981C137.549 225.588 135.008 225.172 132.516 224.71C121.064 222.725 109.911 220.093 99.2446 216.837C94.8801 215.52 90.609 214.089 86.4302 212.566C67.7976 205.778 50.965 196.981 36.9966 186.314C33.8328 183.889 30.8776 181.418 28.1309 178.902C25.4525 176.477 22.9826 174.006 20.6961 171.49L20.6733 171.466C15.0852 165.324 10.6296 158.952 7.32802 152.464C6.58861 151.033 5.91992 149.601 5.29675 148.169C4.05043 145.259 3.03419 142.328 2.20251 139.396C1.87894 138.195 1.57933 136.973 1.32527 135.772C0.470821 131.731 0.03222 127.713 0.00945055 123.673C-0.0145173 122.657 0.00944382 121.641 0.0549827 120.601C0.124489 118.385 0.355789 116.168 0.702124 113.975C0.817169 113.029 1.00171 112.105 1.18626 111.158C1.8334 107.902 2.75617 104.647 3.97972 101.438C4.25655 100.606 4.58011 99.7529 4.95042 98.9212C5.71259 97.0733 6.56704 95.2266 7.51377 93.3798C7.92961 92.5949 8.34426 91.8099 8.80684 91.0478C10.354 88.2531 12.1551 85.4824 14.1637 82.7825C14.6718 82.0431 15.2027 81.3276 15.7803 80.635C17.0038 79.0183 18.3197 77.4484 19.705 75.8785C20.3054 75.2086 20.9058 74.5387 21.529 73.87C23.8143 71.4457 26.2626 69.0669 28.8943 66.7348C29.5869 66.0877 30.3024 65.4885 31.019 64.8881C32.6356 63.5028 34.3434 62.1402 36.099 60.7788C36.8384 60.2012 37.6221 59.6248 38.4083 59.0699C41.2712 56.9463 44.296 54.9139 47.4825 52.9281C48.337 52.3745 49.1914 51.8664 50.0459 51.3343C52.0316 50.1335 54.0868 48.9795 56.1876 47.8254C57.0888 47.3401 57.9888 46.8547 58.9116 46.3706C62.3294 44.5694 65.9078 42.8377 69.624 41.1755C70.6174 40.7142 71.6325 40.2755 72.6487 39.8597C73.4337 39.4894 74.2186 39.1431 75.0263 38.8207C76.5962 38.1508 78.1901 37.5276 79.8055 36.9272C80.8445 36.4886 81.8835 36.0968 82.9453 35.7265C87.009 34.1793 91.1651 32.7712 95.3678 31.4781C96.4991 31.0851 97.6304 30.74 98.7844 30.4164C101.508 29.6087 104.256 28.8225 107.027 28.1071C108.228 27.7835 109.429 27.4839 110.652 27.2071C115.386 26.0075 120.165 24.9673 125.014 24.0445C126.307 23.7665 127.623 23.5364 128.938 23.3051C132.125 22.7275 135.334 22.2194 138.566 21.758C139.929 21.5507 141.314 21.3422 142.699 21.1804C148.288 20.441 153.897 19.8645 159.555 19.4259C161.079 19.3109 162.602 19.1946 164.127 19.1024C167.914 18.8483 171.746 18.6865 175.556 18.5943C177.218 18.5247 178.88 18.502 180.566 18.502C187.401 18.4097 194.258 18.5247 201.068 18.8711C202.962 18.9634 204.879 19.0784 206.794 19.1946C211.69 19.5182 216.561 19.9568 221.41 20.5117C223.603 20.7657 225.796 21.0198 227.967 21.3194C237.873 22.6352 247.593 24.4136 257.037 26.6522C260.131 27.3689 263.202 28.1538 266.25 28.9843C293.01 36.2573 317.138 47.2478 336.048 61.6788C344.06 67.7966 350.733 74.2391 356.09 80.8662C357.521 82.6207 358.838 84.3751 360.061 86.1308C363.824 91.5571 366.757 97.0984 368.88 102.685C369.364 103.909 369.78 105.156 370.173 106.403C371.028 109.151 371.698 111.897 372.182 114.668C372.344 115.754 372.507 116.84 372.62 117.924C373.081 121.802 373.149 125.658 372.848 129.514Z" fill="#6B3B10"/>
<path d="M362.569 102.211C362.488 101.423 362.401 100.629 362.304 99.8317C361.603 94.1226 360.325 88.3068 356.379 84.2311C354.055 81.8307 351.199 80.6659 348.308 79.1547C347.937 78.9606 347.603 78.7592 347.288 78.5495C335.631 62.9045 316.649 48.7983 290.763 38.0116C259.732 25.0809 223.534 18.8972 187.587 18.9571C187.279 18.9547 186.972 18.9523 186.665 18.95C186.357 18.9511 186.05 18.9547 185.742 18.9571C149.795 18.8972 113.597 25.0809 82.5657 38.0116C56.6804 48.7983 37.6967 62.9033 26.0412 78.5495C25.726 78.758 25.3928 78.9606 25.0225 79.1547C22.1308 80.6659 19.2739 81.8295 16.9502 84.2311C13.0051 88.3068 11.7264 94.1226 11.0253 99.8317C10.9271 100.629 10.8408 101.423 10.7605 102.211C9.17502 117.655 11.9877 135.455 19.5699 149.19C26.8549 162.389 38.8016 172.495 50.9282 180.865C60.6195 187.553 71.151 192.967 82.0072 197.491C113.464 210.599 150.23 216.787 186.664 216.551C223.095 216.786 259.863 210.598 291.318 197.491C302.176 192.967 312.708 187.553 322.398 180.865C334.525 172.496 346.472 162.389 353.757 149.19C361.341 135.455 364.154 117.655 362.569 102.211Z" fill="#F17900"/>
<path d="M290.89 178.547C213.568 210.767 104.158 201.187 46.5127 157.148C-11.1323 113.11 4.81712 51.2898 82.1373 19.0699C159.457 -13.1501 268.869 -3.57013 326.514 40.4683C384.159 84.5068 368.209 146.326 290.89 178.547Z" fill="#FFA433"/>
<path d="M288.126 175.237C212.854 206.604 106.34 197.277 50.2201 154.404C-5.89932 111.532 9.62824 51.3487 84.9004 19.9832C160.173 -11.3835 266.687 -2.05763 322.806 40.8148C378.926 83.6872 363.398 143.87 288.126 175.237Z" fill="#FFCD36"/>
<path d="M285.012 171.661C212.046 202.067 108.795 193.025 54.3951 151.466C-0.00464821 109.907 15.0459 51.5678 88.0136 21.1622C160.98 -9.24456 264.23 -0.202708 318.631 41.3563C373.032 82.9153 357.98 141.254 285.012 171.661Z" fill="#FFB433"/>
<path d="M280.327 166.21C210.832 194.615 112.492 186.169 60.6807 147.343C8.86949 108.519 23.2034 54.0186 92.6993 25.6131C162.194 -2.79353 260.533 5.65394 312.345 44.4782C364.158 83.3025 349.822 137.803 280.327 166.21Z" fill="#F17900"/>
</svg>
