<svg width="217" height="126" viewBox="0 0 217 126" fill="none" xmlns="http://www.w3.org/2000/svg">
<path d="M60.164 50.8163L59.8309 51.6552C59.1071 49.1278 57.2759 46.6723 54.4669 44.5415C48.7505 40.2573 39.6464 37.6975 30.0628 37.6975C23.3662 37.6975 17.0303 38.9175 11.7023 41.1788C5.42032 43.8393 1.39133 47.6837 0.304389 51.8301L0 51.3951L0.0179751 53.6984C0.00718961 53.9489 -0.00479751 54.1993 0.0071864 54.4498C0.0071864 54.5696 0.00718888 54.7183 0.0359503 54.8369C0.30439 57.9911 2.26854 61.0266 5.74987 63.6439C11.435 67.9305 20.5416 70.4891 30.1215 70.4891C36.8182 70.4891 43.1564 69.2691 48.4845 67.0054C55.4771 64.0609 59.7014 59.6281 60.1484 54.8956C60.1772 54.7171 60.1772 54.5397 60.1772 54.3611L60.164 50.8163Z" fill="#D44935"/>
<path d="M54.4669 41.8428C48.7506 37.5586 39.6464 35 30.0629 35C23.3663 35 17.0304 36.22 11.7023 38.4813C4.11292 41.6966 -0.201294 46.6352 0.0072257 51.7535C0.0072257 51.8733 0.00722819 52.0219 0.0359896 52.1418C0.304429 55.2959 2.26858 58.3315 5.74991 60.9488C11.4351 65.2354 20.5416 67.794 30.1216 67.794C36.8182 67.794 43.1565 66.574 48.4845 64.3126C55.4771 61.3658 59.7015 56.9329 60.1485 52.2005C60.1772 52.0231 60.1772 51.8446 60.1772 51.666C60.2983 48.2123 58.2754 44.7285 54.4669 41.8428Z" fill="#E75F4A"/>
<path d="M30.1217 66.0298C20.9132 66.0298 12.2009 63.6042 6.81176 59.5405C3.75227 57.2408 2.01581 54.6295 1.79291 51.9894L1.78091 51.8409L1.74257 51.697C1.58917 47.3229 5.55944 42.9979 12.3879 40.105C17.5398 37.9179 23.6504 36.7627 30.0606 36.7627C39.2606 36.7627 47.9885 39.1882 53.4088 43.252C56.7319 45.777 58.5163 48.7418 58.4193 51.6036C58.4169 51.7438 58.4216 51.8217 58.4109 51.9008C58.007 56.1287 54.147 60.0139 47.7979 62.6851C42.6472 64.8745 36.5343 66.0298 30.1217 66.0298Z" fill="#D44935"/>
<path d="M50.8691 44.048C49.002 43.5207 46.8592 44.1115 45.1599 43.1779C44.2264 42.6638 43.5769 41.7614 42.7272 41.1191C39.9649 39.0171 36.0354 40.0969 32.5936 39.6259C30.7469 39.3718 28.9637 38.6408 27.099 38.6384C24.8616 38.636 22.8195 39.669 20.8242 40.5535C18.7138 41.4894 16.6706 42.109 14.3349 42.0299C13.8484 42.0119 13.3402 41.9711 12.8825 42.1473C11.9873 42.4853 11.1196 43.432 10.3059 43.9557C9.2058 44.6639 8.18476 45.5459 7.13258 46.3309C6.62086 46.7144 6.04805 47.2393 6.1583 47.8708C6.24578 48.3526 6.70357 48.6666 6.96721 49.0788C7.72939 50.2652 6.85455 51.7872 7.17213 53.0742C7.49929 54.3949 7.70182 55.8317 8.28543 57.0996C9.21179 59.1081 11.1172 60.8446 13.3295 60.8314C14.13 60.8266 14.9077 60.5965 15.7083 60.5606C16.5208 60.5246 17.2806 60.7571 18.0943 60.7679C20.0357 60.7967 21.9771 61.1083 23.831 61.6835C27.0774 62.6865 30.18 64.5129 33.5763 64.4506C34.698 64.4302 35.8017 64.2025 36.8982 63.9748C39.0529 63.5242 41.2112 63.0748 43.3719 62.6266C44.0778 62.4804 44.8004 62.3246 45.4152 61.9411C46.3979 61.3252 46.9455 60.2226 47.7281 59.3658C48.555 58.4622 49.6455 57.8414 50.6282 57.1044C52.7973 55.4854 54.5529 53.1114 54.8034 50.4138C55.0586 47.7162 53.478 44.7826 50.8691 44.048Z" fill="#FDBEB2"/>
<path d="M40.3611 56.0855C39.4635 56.0855 38.6246 55.8423 38.0614 55.418C37.5065 54.9986 37.3603 54.5276 37.3352 54.2052C37.3064 53.4347 37.8085 52.7935 38.6726 52.4256C39.1735 52.2135 39.7571 52.1033 40.3587 52.1033C41.2539 52.1033 42.0928 52.3466 42.6584 52.7732C43.1498 53.1459 43.4098 53.6324 43.3882 54.1441C43.3475 54.5995 43.1246 55.3078 42.0448 55.7632C41.5475 55.9729 40.9639 56.0855 40.3611 56.0855Z" fill="#C95151"/>
<path d="M40.3607 55.2047C39.662 55.2047 39.0005 55.0226 38.5931 54.7134C38.3606 54.5396 38.23 54.3407 38.212 54.1406V54.1298L38.2072 54.1178C38.1988 53.7871 38.4984 53.4575 39.0173 53.2394C39.4068 53.0716 39.8694 52.9841 40.3559 52.9841C41.0546 52.9841 41.7161 53.1687 42.1283 53.4779C42.3788 53.6696 42.5166 53.8949 42.507 54.1118C42.507 54.1202 42.507 54.1274 42.507 54.1346C42.4782 54.4558 42.1822 54.7506 41.7017 54.9531C41.3122 55.1161 40.8473 55.2047 40.3607 55.2047Z" fill="#F36F5B"/>
<path d="M36.3544 50.8931C35.4592 50.8931 34.6203 50.6498 34.0558 50.2232C33.4998 49.8062 33.3524 49.3352 33.3284 49.0129C33.2985 48.2423 33.8018 47.6011 34.6682 47.2344C35.168 47.0223 35.748 46.9097 36.352 46.9097C37.2448 46.9097 38.0836 47.1553 38.6505 47.5796C39.1442 47.9523 39.4007 48.4388 39.3827 48.9517C39.3419 49.4071 39.119 50.1178 38.0381 50.572C37.5396 50.7805 36.9584 50.8931 36.3544 50.8931Z" fill="#C95151"/>
<path d="M36.3539 50.0111C35.6565 50.0111 34.9937 49.8266 34.5863 49.5174C34.3538 49.3436 34.2208 49.1471 34.2052 48.9446V48.9338L34.2004 48.9242C34.1908 48.5934 34.4916 48.2639 35.0093 48.0446C35.4 47.878 35.8638 47.7905 36.3515 47.7905C37.049 47.7905 37.7105 47.9727 38.1215 48.2819C38.3732 48.476 38.5098 48.7013 38.5026 48.9182C38.5026 48.9266 38.5026 48.9338 38.5026 48.941C38.4715 49.2622 38.1779 49.5546 37.6961 49.7571C37.3054 49.9237 36.8405 50.0111 36.3539 50.0111Z" fill="#F36F5B"/>
<path d="M25.5427 51.66C24.6451 51.66 23.8086 51.4167 23.243 50.9925C22.6893 50.573 22.5419 50.1021 22.518 49.7797C22.4868 49.0079 22.9913 48.368 23.8554 48.0001C24.3575 47.788 24.9375 47.6777 25.5391 47.6777C26.4343 47.6777 27.2732 47.921 27.8388 48.3476C28.3326 48.7203 28.589 49.2069 28.571 49.7186C28.5303 50.174 28.3074 50.8822 27.2253 51.34C26.7267 51.5473 26.1443 51.66 25.5427 51.66Z" fill="#C95151"/>
<path d="M25.5425 50.778C24.8462 50.778 24.1835 50.5959 23.7748 50.2867C23.5423 50.1129 23.4093 49.914 23.3937 49.7139V49.7031L23.389 49.6911C23.3782 49.3603 23.6802 49.0308 24.1955 48.8115C24.5885 48.6449 25.0499 48.5598 25.5377 48.5598C26.2363 48.5598 26.8978 48.742 27.3077 49.0512C27.563 49.2429 27.696 49.4682 27.6888 49.6839C27.6888 49.6959 27.6888 49.7007 27.6888 49.7067C27.6576 50.0266 27.364 50.3226 26.8846 50.5252C26.4916 50.6906 26.029 50.778 25.5425 50.778Z" fill="#F36F5B"/>
<path d="M30.0761 56.753C29.1785 56.753 28.3397 56.5098 27.7764 56.0831C27.2192 55.6661 27.0754 55.1951 27.0502 54.8728C27.019 54.101 27.5236 53.461 28.3876 53.0943C28.8873 52.8822 29.4722 52.772 30.0713 52.772C30.9689 52.772 31.8054 53.0153 32.3734 53.4395C32.8624 53.8146 33.1213 54.3011 33.1033 54.8116C33.0625 55.267 32.8396 55.9777 31.7599 56.4343C31.2601 56.6404 30.6789 56.753 30.0761 56.753Z" fill="#C95151"/>
<path d="M30.0757 55.8711C29.377 55.8711 28.7155 55.6865 28.308 55.3773C28.0755 55.2035 27.9449 55.007 27.9269 54.8057V54.7925L27.9222 54.7841C27.9114 54.4534 28.2134 54.1238 28.7299 53.9045C29.1217 53.7379 29.5843 53.6528 30.0709 53.6528C30.7695 53.6528 31.431 53.835 31.8433 54.1418C32.0937 54.3359 32.2316 54.5612 32.222 54.7769C32.222 54.7889 32.222 54.7925 32.222 54.7997C32.1908 55.1197 31.8972 55.4157 31.4167 55.6182C31.0272 55.7836 30.5634 55.8711 30.0757 55.8711Z" fill="#F36F5B"/>
<path d="M30.2978 46.5679C29.4002 46.5679 28.5613 46.3223 27.9981 45.898C27.4444 45.4786 27.2946 45.0076 27.2719 44.6852C27.2407 43.9135 27.7452 43.2735 28.6093 42.9068C29.1078 42.6947 29.6914 42.5845 30.2942 42.5845C31.1894 42.5845 32.0283 42.8277 32.5939 43.2544C33.0853 43.6271 33.3453 44.1136 33.3273 44.6253C33.2842 45.0807 33.0637 45.789 31.9803 46.2468C31.4818 46.4553 30.8994 46.5679 30.2978 46.5679Z" fill="#C95151"/>
<path d="M30.2971 45.6848C29.5985 45.6848 28.9369 45.5026 28.5295 45.1934C28.2946 45.0197 28.164 44.8207 28.1484 44.623L28.1472 44.6098L28.1448 44.6002C28.134 44.2671 28.436 43.9375 28.9513 43.7194C29.3444 43.5528 29.8058 43.4666 30.2935 43.4666C30.991 43.4666 31.6537 43.6487 32.0636 43.9579C32.3152 44.1496 32.4518 44.3749 32.4446 44.5918C32.4446 44.6026 32.4446 44.6074 32.4422 44.6146C32.4135 44.9346 32.1199 45.2306 31.6393 45.4331C31.2462 45.5961 30.7837 45.6848 30.2971 45.6848Z" fill="#F36F5B"/>
<path d="M17.074 53.1939C16.1788 53.1939 15.3411 52.9494 14.7767 52.524C14.2194 52.1094 14.0732 51.6384 14.048 51.316C14.0193 50.5443 14.5226 49.9019 15.3879 49.534C15.8876 49.3243 16.4676 49.2117 17.0716 49.2117C17.9644 49.2117 18.8033 49.4549 19.3689 49.8816C19.8626 50.2543 20.1203 50.7408 20.1023 51.2525C20.0616 51.7055 19.8387 52.4162 18.7553 52.874C18.258 53.0825 17.6792 53.1939 17.074 53.1939Z" fill="#C95151"/>
<path d="M17.0738 52.3144C16.3775 52.3144 15.7148 52.1298 15.3062 51.8206C15.0737 51.6445 14.9407 51.4479 14.9251 51.2478V51.237L14.9203 51.225C14.9083 50.8943 15.2115 50.5671 15.7292 50.3466C16.1187 50.1824 16.5836 50.0938 17.0714 50.0938C17.7677 50.0938 18.4304 50.2783 18.839 50.5851C19.0931 50.7768 19.2285 51.0021 19.2225 51.219C19.2225 51.2298 19.2225 51.237 19.2225 51.2418C19.1889 51.5642 18.8977 51.8578 18.4148 52.0603C18.0265 52.2257 17.5615 52.3144 17.0738 52.3144Z" fill="#F36F5B"/>
<path d="M12.2827 48.5599C11.3899 48.5599 10.551 48.3166 9.9854 47.89C9.42815 47.4729 9.28195 46.9996 9.25918 46.6796C9.22802 45.9078 9.73256 45.2655 10.5966 44.9012C11.0963 44.6867 11.6787 44.5764 12.2827 44.5764C13.1755 44.5764 14.0144 44.8221 14.58 45.2463C15.0738 45.619 15.3314 46.1056 15.3099 46.6173C15.2691 47.0727 15.0486 47.7833 13.9665 48.2363C13.4691 48.4472 12.8879 48.5599 12.2827 48.5599Z" fill="#C95151"/>
<path d="M12.2846 47.6779C11.586 47.6779 10.9245 47.4934 10.517 47.1842C10.2845 47.0104 10.1515 46.8139 10.1359 46.6113L10.1335 46.5993L10.1311 46.591C10.1204 46.2578 10.4199 45.9306 10.9412 45.7113C11.3295 45.5448 11.7957 45.4573 12.281 45.4573C12.9773 45.4573 13.6424 45.6394 14.0511 45.9486C14.3027 46.1428 14.4381 46.3657 14.4322 46.5838C14.4322 46.5934 14.4345 46.5993 14.4322 46.6065C14.401 46.9265 14.1098 47.2201 13.6244 47.4226C13.2362 47.5904 12.77 47.6779 12.2846 47.6779Z" fill="#F36F5B"/>
<path d="M21.5915 60.1985C20.6939 60.1985 19.8551 59.9553 19.2918 59.5286C18.7382 59.1116 18.5908 58.6406 18.5668 58.3207C18.5356 57.5489 19.0402 56.9066 19.9042 56.5398C20.4039 56.3277 20.9863 56.2151 21.5879 56.2151C22.4831 56.2151 23.322 56.4608 23.8877 56.885C24.3802 57.2601 24.639 57.7466 24.6211 58.2583C24.5779 58.7113 24.3574 59.422 23.2753 59.8774C22.7755 60.0859 22.1943 60.1985 21.5915 60.1985Z" fill="#C95151"/>
<path d="M21.5913 59.3166C20.8926 59.3166 20.2311 59.1321 19.8237 58.8253C19.5888 58.6503 19.4581 58.4526 19.4426 58.2524V58.2393L19.4378 58.2309C19.427 57.9001 19.729 57.5706 20.2455 57.3513C20.6374 57.1847 21.0999 57.0996 21.5865 57.0996C22.2864 57.0996 22.9467 57.2818 23.3589 57.5909C23.6094 57.7827 23.7472 58.008 23.7376 58.2237C23.7376 58.2357 23.7376 58.2393 23.7376 58.2465C23.7088 58.5664 23.4128 58.8624 22.9323 59.065C22.5404 59.2315 22.079 59.3166 21.5913 59.3166Z" fill="#F36F5B"/>
<path d="M12.2888 57.8629C11.3912 57.8629 10.5548 57.6196 9.99151 57.193C9.43426 56.7783 9.28806 56.3074 9.26289 55.985C9.23413 55.2133 9.73627 54.5709 10.6003 54.2042C11.1024 53.9945 11.6849 53.8818 12.284 53.8818C13.1816 53.8818 14.0205 54.1251 14.5861 54.5517C15.0775 54.9244 15.334 55.411 15.316 55.9251C15.2752 56.3781 15.0523 57.0863 13.9726 57.5441C13.4752 57.7526 12.894 57.8629 12.2888 57.8629Z" fill="#C95151"/>
<path d="M12.2884 56.9809C11.5922 56.9809 10.9283 56.7988 10.5208 56.4896C10.2907 56.3158 10.1577 56.1169 10.1397 55.9168V55.906L10.1349 55.8952C10.1265 55.5632 10.4261 55.2361 10.945 55.0156C11.3345 54.8514 11.7971 54.7639 12.2837 54.7639C12.9823 54.7639 13.6438 54.9485 14.0561 55.2577C14.3089 55.447 14.4443 55.6723 14.4348 55.8892C14.4348 55.9012 14.4348 55.9072 14.4348 55.912C14.4048 56.2319 14.11 56.528 13.6294 56.7305C13.24 56.8959 12.775 56.9809 12.2884 56.9809Z" fill="#F36F5B"/>
<path d="M21.5915 45.4571C20.6939 45.4571 19.8551 45.2103 19.2918 44.7872C18.7382 44.3702 18.5908 43.8992 18.5668 43.5768C18.5356 42.8051 19.0402 42.1651 19.9042 41.7984C20.4039 41.5863 20.9863 41.4761 21.5879 41.4761C22.4831 41.4761 23.322 41.7193 23.8877 42.146C24.3802 42.5163 24.639 43.0028 24.6211 43.5169C24.5779 43.9723 24.3574 44.6806 23.2753 45.136C22.7755 45.3469 22.1943 45.4571 21.5915 45.4571Z" fill="#C95151"/>
<path d="M21.5913 44.5751C20.8926 44.5751 20.2311 44.3929 19.8237 44.0838C19.5888 43.91 19.4581 43.7099 19.4426 43.5109V43.5001L19.4378 43.487C19.427 43.1574 19.729 42.8291 20.2455 42.6097C20.6374 42.4432 21.0999 42.3545 21.5865 42.3545C22.2864 42.3545 22.9467 42.539 23.3589 42.8482C23.6094 43.04 23.7472 43.2629 23.7376 43.4822C23.7376 43.4906 23.7376 43.4977 23.7376 43.5049C23.7088 43.8249 23.4128 44.1185 22.9323 44.321C22.5404 44.4876 22.079 44.5751 21.5913 44.5751Z" fill="#F36F5B"/>
<path d="M30.7277 62.4204C29.8301 62.4204 28.9912 62.176 28.428 61.7505C27.8719 61.3335 27.7269 60.8625 27.7018 60.5402C27.6682 59.7684 28.1727 59.1285 29.0392 58.7606C29.5389 58.5484 30.1213 58.4358 30.7229 58.4358C31.6181 58.4358 32.4546 58.6815 33.0226 59.1057C33.514 59.4784 33.7728 59.9649 33.7524 60.4767C33.7117 60.932 33.4888 61.6427 32.409 62.0981C31.9093 62.3066 31.3305 62.4204 30.7277 62.4204Z" fill="#C95151"/>
<path d="M30.7272 61.5385C30.0285 61.5385 29.367 61.3539 28.9595 61.0447C28.7247 60.871 28.594 60.6744 28.5784 60.4719V60.4611L28.5737 60.4515C28.5605 60.1208 28.8625 59.7912 29.3802 59.5731C29.7733 59.4054 30.2346 59.3179 30.7224 59.3179C31.4198 59.3179 32.0814 59.5024 32.4948 59.8092C32.7453 60.0033 32.8807 60.2286 32.8735 60.4455C32.8735 60.4539 32.8735 60.4611 32.8735 60.4683C32.8423 60.7883 32.5487 61.0807 32.0694 61.2844C31.6763 61.451 31.2149 61.5385 30.7272 61.5385Z" fill="#F36F5B"/>
<path d="M45.2468 50.0926C44.3492 50.0926 43.5127 49.8469 42.9471 49.4227C42.3923 49.0056 42.2461 48.5335 42.2209 48.2135C42.1921 47.4429 42.6943 46.797 43.5583 46.4327C44.0616 46.2206 44.6428 46.1079 45.2456 46.1079C46.1408 46.1079 46.9797 46.3536 47.5453 46.7778C48.0367 47.1505 48.2955 47.6371 48.2752 48.15C48.2344 48.603 48.0115 49.3112 46.9318 49.769C46.4332 49.9799 45.8496 50.0926 45.2468 50.0926Z" fill="#C95151"/>
<path d="M45.2469 49.2094C44.5507 49.2094 43.888 49.0261 43.4793 48.7205C43.2492 48.5443 43.1162 48.3454 43.0982 48.1477V48.1345L43.097 48.1249C43.085 47.7917 43.3859 47.4646 43.9012 47.2429C44.293 47.0787 44.7556 46.9912 45.2434 46.9912C45.942 46.9912 46.6023 47.1758 47.0146 47.485C47.2674 47.6743 47.4028 47.8996 47.3932 48.1165C47.3932 48.1273 47.3932 48.1345 47.3932 48.1393C47.3645 48.4604 47.0709 48.7576 46.5879 48.9602C46.1997 49.1232 45.7347 49.2094 45.2469 49.2094Z" fill="#F36F5B"/>
<path d="M38.2146 44.7574C37.3194 44.7574 36.4805 44.5117 35.9149 44.0875C35.3588 43.668 35.2138 43.1995 35.1898 42.8759C35.1587 42.1041 35.6632 41.4618 36.5272 41.0951C37.027 40.8854 37.6118 40.7727 38.2134 40.7727C39.1086 40.7727 39.945 41.016 40.5131 41.4426C41.0044 41.8141 41.2633 42.3019 41.2441 42.816C41.2034 43.269 40.9805 43.9772 39.8995 44.435C39.3986 44.6447 38.8162 44.7574 38.2146 44.7574Z" fill="#C95151"/>
<path d="M38.2162 43.8742C37.514 43.8742 36.856 43.6921 36.4462 43.3853C36.2137 43.2103 36.0831 43.0114 36.0675 42.8137L36.0651 42.7993L36.0639 42.7909C36.0507 42.4578 36.3527 42.1282 36.8704 41.9101C37.2611 41.7423 37.7249 41.6572 38.2102 41.6572C38.9101 41.6572 39.5704 41.8418 39.9826 42.1486C40.2331 42.3403 40.3709 42.5656 40.3613 42.7825C40.3613 42.7933 40.3637 42.7981 40.3613 42.8053C40.3302 43.1264 40.0389 43.4212 39.5572 43.6238C39.1653 43.788 38.7004 43.8742 38.2162 43.8742Z" fill="#F36F5B"/>
<path d="M40.3703 61.3082C39.4727 61.3082 38.6338 61.0649 38.0682 60.6383C37.5133 60.2237 37.3671 59.7527 37.3443 59.4303C37.3108 58.6586 37.8153 58.0162 38.6817 57.6507C39.1791 57.4386 39.7615 57.3271 40.3655 57.3271C41.2607 57.3271 42.0972 57.5704 42.6628 57.9971C43.1565 58.3698 43.413 58.8563 43.395 59.368C43.3519 59.8234 43.1314 60.534 42.0516 60.9894C41.5519 61.198 40.9719 61.3082 40.3703 61.3082Z" fill="#C95151"/>
<path d="M40.3697 60.4286C39.6711 60.4286 39.0096 60.2441 38.5997 59.9349C38.3672 59.7611 38.2366 59.5622 38.2186 59.3621V59.3513L38.2162 59.3405C38.2031 59.0109 38.5051 58.6814 39.0228 58.4633C39.4158 58.2967 39.8772 58.208 40.3649 58.208C41.0624 58.208 41.7239 58.3914 42.135 58.6994C42.3866 58.8911 42.5208 59.1164 42.516 59.3357C42.516 59.3441 42.5161 59.3513 42.5137 59.3561C42.4825 59.6784 42.1913 59.972 41.7096 60.1746C41.3189 60.3412 40.8563 60.4286 40.3697 60.4286Z" fill="#F36F5B"/>
<path d="M48.2742 56.5577C47.3766 56.5577 46.5389 56.3133 45.9745 55.8902C45.4196 55.4732 45.2734 55.0022 45.2482 54.6799C45.2195 53.9093 45.7216 53.2682 46.5856 52.9002C47.0866 52.6881 47.6702 52.5779 48.273 52.5779C49.167 52.5779 50.007 52.8212 50.5727 53.2478C51.064 53.6181 51.3241 54.1046 51.3037 54.6187C51.2629 55.0741 51.0425 55.7824 49.9591 56.2378C49.4606 56.4463 48.877 56.5577 48.2742 56.5577Z" fill="#C95151"/>
<path d="M48.2759 55.6781C47.5748 55.6781 46.9169 55.4936 46.5058 55.1868C46.2734 55.013 46.1427 54.8117 46.1248 54.6116V54.6032L46.1224 54.59C46.1116 54.2604 46.4112 53.9321 46.9301 53.7128C47.3196 53.545 47.7845 53.4575 48.2699 53.4575C48.9685 53.4575 49.6288 53.6421 50.0423 53.9513C50.2915 54.1406 50.4294 54.3659 50.421 54.5852C50.421 54.5936 50.421 54.6008 50.421 54.608C50.3922 54.9279 50.0986 55.2215 49.6157 55.4241C49.225 55.5906 48.7612 55.6781 48.2759 55.6781Z" fill="#F36F5B"/>
<path d="M213.165 105.818L212.832 106.656C212.107 104.129 210.277 101.673 207.467 99.5416C201.751 95.2585 192.646 92.6987 183.064 92.6987C176.366 92.6987 170.03 93.9187 164.704 96.1801C158.422 98.8405 154.391 102.685 153.304 106.831L153 106.398L153.019 108.702C153.007 108.951 152.995 109.202 153.007 109.452C153.007 109.572 153.007 109.721 153.036 109.841C153.304 112.995 155.267 116.029 158.75 118.647C164.435 122.934 173.542 125.494 183.123 125.494C189.819 125.494 196.158 124.273 201.486 122.01C208.477 119.066 212.703 114.633 213.148 109.9C213.177 109.722 213.177 109.543 213.177 109.366L213.165 105.818Z" fill="#D44935"/>
<path d="M207.467 96.8428C201.75 92.5598 192.646 90 183.064 90C176.366 90 170.03 91.22 164.703 93.4813C157.114 96.6966 152.8 101.635 153.007 106.752C153.007 106.872 153.007 107.021 153.036 107.139C153.304 110.295 155.267 113.329 158.75 115.948C164.435 120.234 173.542 122.793 183.123 122.793C189.819 122.793 196.158 121.573 201.486 119.313C208.477 116.365 212.703 111.933 213.148 107.199C213.177 107.022 213.177 106.843 213.177 106.666C213.298 103.213 211.275 99.7297 207.467 96.8428Z" fill="#E75F4A"/>
<path d="M183.122 121.031C173.913 121.031 165.202 118.606 159.813 114.542C156.752 112.242 155.017 109.63 154.794 106.99L154.782 106.841L154.745 106.697C154.591 102.323 158.561 97.9982 165.39 95.1053C170.542 92.9182 176.651 91.7642 183.062 91.7642C192.263 91.7642 200.99 94.1885 206.411 98.2522C209.733 100.777 211.517 103.743 211.421 106.605C211.419 106.744 211.424 106.824 211.412 106.902C211.008 111.13 207.148 115.015 200.797 117.687C195.647 119.876 189.534 121.031 183.122 121.031Z" fill="#D44935"/>
<path d="M203.869 99.0477C202.002 98.5217 199.859 99.1113 198.159 98.1777C197.226 97.6636 196.576 96.7612 195.727 96.1189C192.964 94.0169 189.035 95.0978 185.593 94.6257C183.746 94.3716 181.964 93.6406 180.098 93.6394C177.862 93.637 175.819 94.6688 173.824 95.5532C171.713 96.4892 169.67 97.1099 167.334 97.0296C166.848 97.0117 166.341 96.9709 165.882 97.1471C164.987 97.485 164.119 98.433 163.305 98.9567C162.205 99.6637 161.184 100.546 160.133 101.329C159.622 101.713 159.05 102.239 159.159 102.869C159.247 103.352 159.704 103.665 159.969 104.079C160.731 105.264 159.855 106.787 160.174 108.074C160.5 109.396 160.704 110.832 161.289 112.098C162.215 114.108 164.12 115.843 166.333 115.83C167.133 115.825 167.911 115.595 168.71 115.559C169.523 115.523 170.281 115.755 171.096 115.767C173.038 115.795 174.979 116.107 176.832 116.682C180.079 117.685 183.182 119.511 186.577 119.449C187.699 119.429 188.802 119.201 189.898 118.975C192.054 118.523 194.212 118.075 196.371 117.625C197.077 117.479 197.8 117.323 198.415 116.941C199.397 116.325 199.945 115.222 200.728 114.366C201.555 113.462 202.645 112.842 203.628 112.104C205.796 110.485 207.552 108.111 207.803 105.415C208.058 102.717 206.478 99.7836 203.869 99.0477Z" fill="#FDBEB2"/>
<path d="M193.362 111.087C192.465 111.087 191.626 110.843 191.062 110.419C190.508 109.999 190.36 109.529 190.336 109.205C190.307 108.434 190.81 107.794 191.674 107.427C192.173 107.215 192.758 107.104 193.36 107.104C194.255 107.104 195.094 107.348 195.659 107.774C196.151 108.147 196.411 108.634 196.389 109.145C196.35 109.601 196.126 110.309 195.046 110.764C194.547 110.974 193.964 111.087 193.362 111.087Z" fill="#C95151"/>
<path d="M193.362 110.206C192.663 110.206 192.002 110.024 191.593 109.715C191.362 109.541 191.23 109.342 191.213 109.141V109.13L191.208 109.118C191.199 108.787 191.498 108.456 192.018 108.239C192.408 108.072 192.87 107.984 193.357 107.984C194.056 107.984 194.717 108.169 195.129 108.478C195.38 108.67 195.518 108.895 195.508 109.111C195.508 109.12 195.508 109.127 195.508 109.135C195.479 109.455 195.184 109.751 194.703 109.953C194.313 110.118 193.848 110.206 193.362 110.206Z" fill="#F36F5B"/>
<path d="M189.354 105.894C188.459 105.894 187.621 105.651 187.057 105.224C186.5 104.806 186.353 104.336 186.328 104.013C186.3 103.242 186.803 102.601 187.668 102.234C188.169 102.022 188.748 101.91 189.352 101.91C190.245 101.91 191.084 102.154 191.649 102.58C192.143 102.952 192.401 103.439 192.383 103.951C192.342 104.406 192.118 105.117 191.038 105.571C190.541 105.782 189.958 105.894 189.354 105.894Z" fill="#C95151"/>
<path d="M189.354 105.012C188.658 105.012 187.994 104.829 187.586 104.52C187.354 104.345 187.22 104.15 187.205 103.946V103.935L187.2 103.925C187.191 103.595 187.492 103.264 188.011 103.047C188.4 102.879 188.865 102.792 189.352 102.792C190.049 102.792 190.712 102.974 191.123 103.283C191.374 103.477 191.51 103.703 191.503 103.918C191.503 103.928 191.503 103.935 191.503 103.941C191.472 104.262 191.178 104.556 190.695 104.758C190.305 104.925 189.84 105.012 189.354 105.012Z" fill="#F36F5B"/>
<path d="M178.544 106.661C177.646 106.661 176.81 106.418 176.243 105.994C175.688 105.573 175.542 105.103 175.518 104.78C175.487 104.008 175.993 103.368 176.855 103.001C177.357 102.789 177.936 102.678 178.539 102.678C179.434 102.678 180.272 102.922 180.839 103.348C181.333 103.72 181.59 104.207 181.571 104.719C181.531 105.174 181.307 105.882 180.225 106.34C179.727 106.549 179.144 106.661 178.544 106.661Z" fill="#C95151"/>
<path d="M178.543 105.779C177.846 105.779 177.183 105.597 176.775 105.288C176.543 105.113 176.409 104.915 176.395 104.714V104.703L176.39 104.691C176.378 104.36 176.68 104.03 177.197 103.813C177.59 103.645 178.052 103.56 178.539 103.56C179.237 103.56 179.899 103.742 180.309 104.051C180.564 104.242 180.697 104.468 180.69 104.684C180.69 104.696 180.69 104.701 180.69 104.705C180.659 105.027 180.365 105.321 179.885 105.525C179.491 105.692 179.03 105.779 178.543 105.779Z" fill="#F36F5B"/>
<path d="M183.078 111.754C182.18 111.754 181.343 111.511 180.778 111.084C180.221 110.667 180.077 110.196 180.053 109.874C180.022 109.102 180.527 108.461 181.389 108.094C181.89 107.882 182.474 107.772 183.073 107.772C183.971 107.772 184.807 108.015 185.376 108.439C185.865 108.815 186.124 109.301 186.106 109.81C186.065 110.266 185.841 110.976 184.763 111.434C184.262 111.642 183.681 111.754 183.078 111.754Z" fill="#C95151"/>
<path d="M183.078 110.872C182.379 110.872 181.717 110.688 181.31 110.379C181.077 110.205 180.946 110.008 180.929 109.808V109.794L180.924 109.784C180.913 109.453 181.215 109.124 181.732 108.906C182.124 108.738 182.586 108.653 183.073 108.653C183.773 108.653 184.433 108.835 184.845 109.142C185.096 109.336 185.232 109.562 185.223 109.778C185.223 109.789 185.223 109.794 185.223 109.8C185.192 110.12 184.898 110.416 184.419 110.618C184.029 110.785 183.564 110.872 183.078 110.872Z" fill="#F36F5B"/>
<path d="M183.298 101.57C182.4 101.57 181.562 101.325 180.998 100.899C180.443 100.48 180.295 100.009 180.271 99.6864C180.24 98.9147 180.745 98.2748 181.608 97.908C182.107 97.6959 182.69 97.5845 183.292 97.5845C184.187 97.5845 185.026 97.8278 185.592 98.2544C186.083 98.6271 186.343 99.1136 186.325 99.6265C186.282 100.082 186.06 100.79 184.978 101.248C184.483 101.456 183.9 101.57 183.298 101.57Z" fill="#C95151"/>
<path d="M183.297 100.685C182.599 100.685 181.937 100.503 181.53 100.193C181.295 100.02 181.163 99.8207 181.149 99.623L181.146 99.6086L181.144 99.6002C181.132 99.2671 181.435 98.9363 181.952 98.7182C182.343 98.5516 182.806 98.4653 183.293 98.4653C183.99 98.4653 184.653 98.6487 185.064 98.9579C185.315 99.1484 185.451 99.3749 185.444 99.5906C185.444 99.6026 185.444 99.6062 185.441 99.6122C185.411 99.9334 185.119 100.228 184.638 100.432C184.247 100.597 183.784 100.685 183.297 100.685Z" fill="#F36F5B"/>
<path d="M170.076 108.194C169.181 108.194 168.342 107.951 167.778 107.524C167.221 107.108 167.075 106.638 167.051 106.315C167.021 105.544 167.524 104.901 168.39 104.534C168.891 104.324 169.469 104.212 170.073 104.212C170.966 104.212 171.805 104.455 172.371 104.882C172.864 105.254 173.122 105.741 173.104 106.253C173.063 106.707 172.839 107.416 171.757 107.875C171.259 108.084 170.68 108.194 170.076 108.194Z" fill="#C95151"/>
<path d="M170.076 107.316C169.379 107.316 168.716 107.131 168.308 106.822C168.076 106.647 167.941 106.449 167.927 106.248V106.237L167.922 106.225C167.91 105.894 168.213 105.567 168.732 105.347C169.122 105.181 169.587 105.094 170.073 105.094C170.77 105.094 171.433 105.278 171.842 105.585C172.096 105.777 172.232 106.002 172.224 106.218C172.224 106.23 172.224 106.237 172.224 106.242C172.191 106.564 171.9 106.858 171.417 107.06C171.027 107.226 170.562 107.316 170.076 107.316Z" fill="#F36F5B"/>
<path d="M165.284 103.561C164.391 103.561 163.552 103.318 162.987 102.891C162.429 102.473 162.282 102.001 162.259 101.68C162.228 100.908 162.734 100.265 163.597 99.9012C164.098 99.6867 164.678 99.5764 165.283 99.5764C166.175 99.5764 167.013 99.8209 167.58 100.246C168.074 100.617 168.331 101.106 168.31 101.616C168.27 102.071 168.049 102.782 166.966 103.235C166.469 103.447 165.888 103.561 165.284 103.561Z" fill="#C95151"/>
<path d="M165.286 102.678C164.587 102.678 163.925 102.493 163.517 102.184C163.286 102.01 163.151 101.815 163.137 101.611L163.135 101.601L163.132 101.591C163.12 101.258 163.42 100.929 163.941 100.711C164.329 100.545 164.797 100.457 165.281 100.457C165.977 100.457 166.643 100.639 167.051 100.949C167.304 101.142 167.439 101.366 167.432 101.584C167.432 101.593 167.434 101.601 167.432 101.605C167.401 101.927 167.111 102.219 166.624 102.423C166.237 102.59 165.77 102.678 165.286 102.678Z" fill="#F36F5B"/>
<path d="M174.593 115.2C173.695 115.2 172.857 114.956 172.293 114.53C171.738 114.113 171.592 113.642 171.567 113.321C171.537 112.551 172.041 111.907 172.904 111.54C173.405 111.328 173.986 111.215 174.588 111.215C175.483 111.215 176.322 111.461 176.888 111.885C177.379 112.26 177.639 112.747 177.621 113.258C177.578 113.713 177.356 114.422 176.274 114.879C175.777 115.087 175.194 115.2 174.593 115.2Z" fill="#C95151"/>
<path d="M174.592 114.318C173.894 114.318 173.232 114.133 172.825 113.826C172.59 113.65 172.459 113.454 172.444 113.253V113.239L172.439 113.229C172.428 112.899 172.73 112.569 173.246 112.351C173.638 112.183 174.101 112.098 174.587 112.098C175.287 112.098 175.948 112.28 176.36 112.589C176.609 112.781 176.747 113.007 176.739 113.223C176.739 113.234 176.739 113.239 176.739 113.245C176.71 113.565 176.414 113.861 175.933 114.063C175.541 114.232 175.079 114.318 174.592 114.318Z" fill="#F36F5B"/>
<path d="M165.289 112.863C164.391 112.863 163.555 112.62 162.99 112.193C162.434 111.777 162.287 111.307 162.263 110.984C162.233 110.212 162.736 109.57 163.6 109.203C164.103 108.993 164.684 108.881 165.284 108.881C166.182 108.881 167.019 109.124 167.586 109.551C168.078 109.923 168.335 110.41 168.316 110.923C168.275 111.377 168.052 112.085 166.973 112.543C166.474 112.754 165.893 112.863 165.289 112.863Z" fill="#C95151"/>
<path d="M165.288 111.982C164.591 111.982 163.928 111.8 163.52 111.491C163.291 111.317 163.157 111.118 163.139 110.918V110.906L163.135 110.894C163.125 110.563 163.425 110.236 163.944 110.016C164.335 109.85 164.797 109.763 165.284 109.763C165.982 109.763 166.644 109.947 167.056 110.256C167.309 110.446 167.444 110.671 167.435 110.888C167.435 110.899 167.435 110.906 167.435 110.911C167.406 111.231 167.11 111.527 166.63 111.729C166.24 111.897 165.775 111.982 165.288 111.982Z" fill="#F36F5B"/>
<path d="M174.593 100.458C173.695 100.458 172.857 100.213 172.293 99.7884C171.738 99.3702 171.592 98.8992 171.567 98.5768C171.537 97.8051 172.041 97.1651 172.904 96.7984C173.405 96.5863 173.986 96.4749 174.588 96.4749C175.483 96.4749 176.322 96.7181 176.888 97.1448C177.379 97.5151 177.639 98.0016 177.621 98.5169C177.578 98.9723 177.356 99.6805 176.274 100.136C175.777 100.347 175.194 100.458 174.593 100.458Z" fill="#C95151"/>
<path d="M174.592 99.5776C173.894 99.5776 173.232 99.3942 172.825 99.085C172.59 98.9112 172.459 98.7123 172.444 98.5134V98.5014L172.439 98.4882C172.428 98.1599 172.73 97.8291 173.246 97.611C173.638 97.4444 174.101 97.3569 174.587 97.3569C175.287 97.3569 175.948 97.5415 176.36 97.8507C176.609 98.0412 176.747 98.2653 176.739 98.4834C176.739 98.493 176.739 98.5002 176.739 98.505C176.71 98.8262 176.414 99.1186 175.933 99.3223C175.541 99.4877 175.079 99.5776 174.592 99.5776Z" fill="#F36F5B"/>
<path d="M183.729 117.42C182.831 117.42 181.993 117.177 181.429 116.751C180.872 116.332 180.728 115.863 180.704 115.539C180.669 114.767 181.174 114.127 182.04 113.761C182.541 113.548 183.122 113.437 183.724 113.437C184.619 113.437 185.455 113.683 186.023 114.107C186.515 114.478 186.775 114.966 186.755 115.478C186.714 115.933 186.49 116.644 185.41 117.101C184.91 117.309 184.331 117.42 183.729 117.42Z" fill="#C95151"/>
<path d="M183.728 116.54C183.03 116.54 182.368 116.355 181.961 116.046C181.726 115.872 181.594 115.676 181.579 115.473V115.462L181.575 115.453C181.56 115.122 181.864 114.792 182.382 114.574C182.774 114.407 183.237 114.319 183.723 114.319C184.42 114.319 185.084 114.504 185.495 114.81C185.745 115.005 185.881 115.23 185.873 115.446C185.873 115.455 185.873 115.462 185.873 115.47C185.842 115.79 185.549 116.083 185.069 116.286C184.677 116.452 184.215 116.54 183.728 116.54Z" fill="#F36F5B"/>
<path d="M198.248 105.094C197.35 105.094 196.514 104.848 195.948 104.424C195.393 104.006 195.246 103.536 195.221 103.215C195.192 102.444 195.695 101.798 196.558 101.434C197.06 101.222 197.643 101.11 198.244 101.11C199.14 101.11 199.978 101.356 200.544 101.78C201.035 102.153 201.296 102.64 201.274 103.154C201.234 103.607 201.01 104.315 199.931 104.773C199.433 104.981 198.85 105.094 198.248 105.094Z" fill="#C95151"/>
<path d="M198.248 104.211C197.551 104.211 196.888 104.028 196.479 103.722C196.25 103.544 196.116 103.347 196.099 103.148V103.134L196.097 103.125C196.085 102.792 196.386 102.463 196.902 102.244C197.294 102.079 197.757 101.991 198.243 101.991C198.942 101.991 199.604 102.176 200.015 102.485C200.267 102.674 200.403 102.9 200.393 103.115C200.393 103.127 200.393 103.134 200.393 103.138C200.365 103.459 200.072 103.756 199.588 103.96C199.2 104.126 198.735 104.211 198.248 104.211Z" fill="#F36F5B"/>
<path d="M191.216 99.7598C190.321 99.7598 189.482 99.5129 188.915 99.0887C188.359 98.6692 188.214 98.2007 188.19 97.8783C188.159 97.1066 188.664 96.4642 189.527 96.0975C190.027 95.8866 190.611 95.7739 191.213 95.7739C192.109 95.7739 192.944 96.0172 193.513 96.4438C194.004 96.8165 194.263 97.3031 194.243 97.816C194.203 98.2702 193.979 98.9784 192.9 99.4362C192.399 99.6459 191.817 99.7598 191.216 99.7598Z" fill="#C95151"/>
<path d="M191.217 98.8754C190.515 98.8754 189.857 98.6933 189.446 98.3865C189.215 98.2115 189.083 98.0114 189.068 97.8137L189.065 97.7993L189.064 97.7897C189.05 97.4565 189.352 97.127 189.87 96.9089C190.261 96.7423 190.726 96.656 191.21 96.656C191.909 96.656 192.569 96.8406 192.983 97.1474C193.233 97.3391 193.371 97.5656 193.361 97.7813C193.361 97.7921 193.364 97.7969 193.361 97.8041C193.33 98.1252 193.038 98.42 192.556 98.6226C192.167 98.7891 191.702 98.8754 191.217 98.8754Z" fill="#F36F5B"/>
<path d="M193.371 116.308C192.474 116.308 191.635 116.065 191.068 115.638C190.513 115.222 190.367 114.753 190.344 114.429C190.311 113.657 190.815 113.015 191.681 112.651C192.179 112.439 192.76 112.326 193.365 112.326C194.259 112.326 195.096 112.569 195.663 112.996C196.157 113.369 196.414 113.855 196.395 114.367C196.353 114.823 196.131 115.533 195.052 115.988C194.552 116.199 193.973 116.308 193.371 116.308Z" fill="#C95151"/>
<path d="M193.371 115.43C192.671 115.43 192.011 115.245 191.6 114.936C191.368 114.762 191.236 114.563 191.22 114.363V114.351L191.217 114.339C191.203 114.011 191.505 113.681 192.024 113.463C192.416 113.295 192.878 113.208 193.366 113.208C194.062 113.208 194.725 113.39 195.136 113.699C195.389 113.891 195.522 114.116 195.517 114.334C195.517 114.344 195.517 114.351 195.515 114.356C195.484 114.678 195.191 114.972 194.709 115.174C194.32 115.342 193.857 115.43 193.371 115.43Z" fill="#F36F5B"/>
<path d="M201.275 111.559C200.379 111.559 199.54 111.316 198.975 110.89C198.42 110.473 198.274 110.002 198.25 109.68C198.22 108.908 198.725 108.268 199.587 107.901C200.087 107.688 200.671 107.578 201.274 107.578C202.168 107.578 203.007 107.821 203.574 108.248C204.065 108.618 204.324 109.106 204.303 109.62C204.263 110.075 204.042 110.784 202.96 111.238C202.461 111.447 201.878 111.559 201.275 111.559Z" fill="#C95151"/>
<path d="M201.277 110.678C200.576 110.678 199.918 110.494 199.507 110.187C199.274 110.013 199.144 109.814 199.126 109.613V109.603L199.123 109.59C199.113 109.26 199.412 108.931 199.931 108.713C200.321 108.546 200.785 108.458 201.271 108.458C201.969 108.458 202.63 108.642 203.043 108.951C203.294 109.141 203.43 109.367 203.422 109.585C203.422 109.595 203.422 109.601 203.422 109.608C203.393 109.929 203.098 110.222 202.617 110.425C202.226 110.591 201.763 110.678 201.277 110.678Z" fill="#F36F5B"/>
<path d="M216.165 15.8163L215.832 16.6552C215.108 14.1278 213.277 11.6723 210.467 9.54154C204.751 5.25729 195.646 2.69751 186.064 2.69751C179.366 2.69751 173.032 3.91749 167.703 6.17885C161.422 8.83928 157.393 12.6837 156.306 16.8301L156 16.3951L156.019 18.6996C156.007 18.9501 155.998 19.1994 156.007 19.4498C156.007 19.5697 156.007 19.7183 156.036 19.8381C156.306 22.9923 158.269 26.0278 161.75 28.6451C167.435 32.9317 176.542 35.4903 186.123 35.4903C192.819 35.4903 199.158 34.2703 204.486 32.0066C211.477 29.0621 215.703 24.6293 216.148 19.8968C216.178 19.7195 216.178 19.5409 216.178 19.3623L216.165 15.8163Z" fill="#D44935"/>
<path d="M210.467 6.8428C204.75 2.55855 195.646 0 186.064 0C179.366 0 173.031 1.21996 167.703 3.48132C160.114 6.69661 155.8 11.6352 156.007 16.7535C156.007 16.8733 156.007 17.0219 156.036 17.1406C156.306 20.2947 158.268 23.3303 161.75 25.9488C167.435 30.2354 176.542 32.794 186.123 32.794C192.819 32.794 199.158 31.574 204.486 29.3126C211.477 26.3658 215.703 21.9329 216.148 17.2005C216.178 17.0219 216.178 16.8446 216.178 16.666C216.298 13.2123 214.275 9.72853 210.467 6.8428Z" fill="#E75F4A"/>
<path d="M186.123 31.0298C176.913 31.0298 168.202 28.6043 162.813 24.5405C159.752 22.2408 158.017 19.6295 157.793 16.9895L157.781 16.8408L157.744 16.6958C157.59 12.3217 161.56 7.99674 168.389 5.10382C173.541 2.91676 179.65 1.7627 186.061 1.7627C195.262 1.7627 203.989 4.18825 209.41 8.25199C212.733 10.777 214.517 13.743 214.42 16.6036C214.418 16.7438 214.423 16.8229 214.411 16.902C214.007 21.1299 210.147 25.0151 203.798 27.6863C198.648 29.8746 192.534 31.0298 186.123 31.0298Z" fill="#D44935"/>
<path d="M206.869 9.04795C205.002 8.52065 202.86 9.11145 201.16 8.17671C200.226 7.6626 199.576 6.76021 198.727 6.11787C195.964 4.01709 192.035 5.09684 188.593 4.62467C186.746 4.37061 184.964 3.63961 183.099 3.63721C180.862 3.63481 178.819 4.66783 176.824 5.55104C174.713 6.48698 172.67 7.10655 170.334 7.02745C169.848 7.00948 169.341 6.96874 168.882 7.1449C167.988 7.48285 167.119 8.43076 166.305 8.95326C165.205 9.66151 164.184 10.5423 163.135 11.3273C162.622 11.7108 162.05 12.2357 162.16 12.8672C162.248 13.3502 162.706 13.6629 162.97 14.0764C163.733 15.2616 162.858 16.7836 163.175 18.0718C163.502 19.3925 163.705 20.8293 164.29 22.096C165.216 24.1045 167.122 25.8422 169.334 25.8278C170.134 25.823 170.912 25.5929 171.713 25.557C172.524 25.521 173.284 25.7535 174.097 25.7643C176.039 25.7931 177.98 26.1046 179.833 26.6799C183.081 27.6829 186.183 29.5093 189.579 29.4469C190.7 29.4266 191.804 29.1989 192.9 28.9712C195.055 28.5206 197.213 28.0712 199.373 27.6218C200.079 27.4756 200.801 27.3198 201.416 26.9363C202.399 26.3204 202.946 25.2178 203.729 24.3622C204.556 23.4574 205.646 22.8378 206.629 22.1008C208.798 20.4818 210.555 18.1078 210.804 15.4114C211.058 12.7162 209.478 9.78256 206.869 9.04795Z" fill="#FDBEB2"/>
<path d="M196.363 21.0856C195.465 21.0856 194.627 20.8411 194.063 20.418C193.509 19.9986 193.362 19.5276 193.337 19.2053C193.308 18.4347 193.81 17.7936 194.675 17.4269C195.174 17.2147 195.759 17.1045 196.361 17.1045C197.256 17.1045 198.095 17.3478 198.66 17.7744C199.152 18.1471 199.412 18.6336 199.39 19.1454C199.351 19.6007 199.127 20.309 198.047 20.7644C197.548 20.9729 196.963 21.0856 196.363 21.0856Z" fill="#C95151"/>
<path d="M196.363 20.2035C195.664 20.2035 195.003 20.0214 194.595 19.7122C194.363 19.5384 194.231 19.3395 194.214 19.1394V19.1286L194.209 19.1178C194.2 18.7859 194.5 18.4575 195.019 18.2382C195.409 18.0716 195.871 17.9841 196.358 17.9841C197.057 17.9841 197.718 18.1687 198.13 18.4779C198.381 18.6696 198.519 18.8949 198.509 19.1118C198.509 19.1202 198.509 19.1274 198.509 19.1346C198.48 19.4545 198.185 19.7505 197.704 19.9531C197.313 20.1161 196.849 20.2035 196.363 20.2035Z" fill="#F36F5B"/>
<path d="M192.354 15.8931C191.459 15.8931 190.621 15.6486 190.057 15.2232C189.499 14.8062 189.353 14.3352 189.329 14.0128C189.301 13.2411 189.803 12.6011 190.668 12.2332C191.169 12.0211 191.748 11.9084 192.352 11.9084C193.244 11.9084 194.083 12.1541 194.65 12.5784C195.143 12.9511 195.4 13.4376 195.382 13.9493C195.342 14.4047 195.118 15.1154 194.038 15.5695C193.54 15.7805 192.959 15.8931 192.354 15.8931Z" fill="#C95151"/>
<path d="M192.354 15.0111C191.658 15.0111 190.994 14.8266 190.586 14.5174C190.354 14.3436 190.221 14.1471 190.205 13.9446V13.9338L190.2 13.9242C190.191 13.5934 190.492 13.2639 191.011 13.0458C191.4 12.878 191.865 12.7905 192.352 12.7905C193.049 12.7905 193.712 12.9727 194.123 13.2819C194.374 13.476 194.51 13.7013 194.503 13.9182C194.503 13.9266 194.503 13.9338 194.503 13.941C194.471 14.2609 194.179 14.5545 193.696 14.7571C193.305 14.9237 192.84 15.0111 192.354 15.0111Z" fill="#F36F5B"/>
<path d="M181.543 16.66C180.645 16.66 179.809 16.4155 179.242 15.9925C178.688 15.5731 178.541 15.1021 178.517 14.7797C178.486 14.008 178.992 13.368 179.854 13.0013C180.357 12.7892 180.937 12.679 181.538 12.679C182.433 12.679 183.271 12.9222 183.838 13.3488C184.332 13.7215 184.589 14.2081 184.57 14.7198C184.531 15.1752 184.306 15.8834 183.224 16.34C182.727 16.5474 182.145 16.66 181.543 16.66Z" fill="#C95151"/>
<path d="M181.543 15.778C180.845 15.778 180.182 15.5959 179.774 15.2867C179.542 15.1129 179.408 14.914 179.394 14.7139V14.7031L179.389 14.6923C179.377 14.3603 179.679 14.0308 180.196 13.8127C180.589 13.6461 181.051 13.5598 181.538 13.5598C182.236 13.5598 182.898 13.742 183.308 14.0512C183.563 14.2429 183.696 14.4682 183.689 14.6851C183.689 14.6959 183.689 14.7007 183.689 14.7079C183.658 15.0278 183.364 15.3238 182.884 15.5264C182.492 15.6905 182.03 15.778 181.543 15.778Z" fill="#F36F5B"/>
<path d="M186.078 21.7532C185.181 21.7532 184.343 21.5088 183.778 21.0834C183.221 20.6663 183.077 20.1953 183.053 19.873C183.022 19.1012 183.526 18.4613 184.389 18.0934C184.89 17.8812 185.474 17.771 186.073 17.771C186.971 17.771 187.807 18.0143 188.376 18.4385C188.865 18.8136 189.124 19.3001 189.106 19.8095C189.065 20.2649 188.841 20.9755 187.763 21.4321C187.262 21.6406 186.679 21.7532 186.078 21.7532Z" fill="#C95151"/>
<path d="M186.078 20.8725C185.379 20.8725 184.719 20.688 184.31 20.3788C184.078 20.205 183.947 20.0085 183.929 19.8083V19.7952L183.924 19.7856C183.913 19.4548 184.215 19.1253 184.732 18.9072C185.124 18.7394 185.586 18.6543 186.073 18.6543C186.773 18.6543 187.433 18.8365 187.845 19.1432C188.096 19.3374 188.232 19.5627 188.224 19.7796C188.224 19.7904 188.224 19.7952 188.224 19.8024C188.193 20.1223 187.899 20.4171 187.419 20.6209C187.029 20.7838 186.564 20.8725 186.078 20.8725Z" fill="#F36F5B"/>
<path d="M186.298 11.5682C185.4 11.5682 184.563 11.3225 183.998 10.8983C183.443 10.4788 183.295 10.0079 183.271 9.6855C183.241 8.91374 183.745 8.27379 184.608 7.90708C185.107 7.69497 185.69 7.58472 186.292 7.58472C187.187 7.58472 188.026 7.828 188.592 8.25462C189.083 8.62732 189.343 9.11387 189.325 9.62558C189.282 10.081 189.06 10.7892 187.978 11.247C187.482 11.4555 186.901 11.5682 186.298 11.5682Z" fill="#C95151"/>
<path d="M186.297 10.685C185.599 10.685 184.937 10.5029 184.53 10.1937C184.295 10.0199 184.164 9.82101 184.149 9.62327L184.146 9.61009L184.144 9.60169C184.133 9.26854 184.435 8.93899 184.952 8.71969C185.343 8.55311 185.806 8.46802 186.293 8.46802C186.99 8.46802 187.653 8.65018 188.064 8.95936C188.317 9.1511 188.451 9.3764 188.444 9.59211C188.444 9.6041 188.444 9.60769 188.441 9.61488C188.413 9.93485 188.119 10.2308 187.638 10.4334C187.246 10.5964 186.784 10.685 186.297 10.685Z" fill="#F36F5B"/>
<path d="M173.076 18.1927C172.181 18.1927 171.343 17.9495 170.778 17.5228C170.221 17.1082 170.075 16.6372 170.051 16.3149C170.021 15.5431 170.524 14.9008 171.39 14.5341C171.891 14.3243 172.469 14.2117 173.073 14.2117C173.966 14.2117 174.805 14.455 175.372 14.8816C175.864 15.2543 176.122 15.7408 176.104 16.2525C176.063 16.7055 175.839 17.4162 174.757 17.874C174.26 18.0825 173.681 18.1927 173.076 18.1927Z" fill="#C95151"/>
<path d="M173.076 17.3129C172.379 17.3129 171.716 17.1284 171.308 16.8192C171.076 16.6442 170.941 16.4465 170.927 16.2463V16.2356L170.922 16.2248C170.91 15.894 171.213 15.5669 171.732 15.3452C172.122 15.181 172.587 15.0935 173.073 15.0935C173.77 15.0935 174.433 15.2781 174.842 15.5849C175.096 15.7766 175.232 16.0019 175.224 16.2176C175.224 16.2296 175.224 16.2356 175.224 16.2404C175.191 16.5627 174.9 16.8563 174.418 17.0589C174.027 17.2254 173.562 17.3129 173.076 17.3129Z" fill="#F36F5B"/>
<path d="M168.284 13.5598C167.391 13.5598 166.552 13.3166 165.987 12.8899C165.429 12.4729 165.282 11.9995 165.259 11.6796C165.228 10.9078 165.734 10.2655 166.597 9.89995C167.098 9.68544 167.678 9.5752 168.283 9.5752C169.176 9.5752 170.013 9.82085 170.58 10.2451C171.074 10.6178 171.331 11.1043 171.311 11.6149C171.27 12.0702 171.049 12.7809 169.966 13.2339C169.469 13.4472 168.888 13.5598 168.284 13.5598Z" fill="#C95151"/>
<path d="M168.286 12.6779C167.587 12.6779 166.926 12.4933 166.517 12.1841C166.286 12.0104 166.151 11.8139 166.137 11.6113L166.135 11.6005L166.132 11.591C166.12 11.2578 166.421 10.9306 166.942 10.7113C167.329 10.5448 167.797 10.4573 168.281 10.4573C168.977 10.4573 169.643 10.6394 170.052 10.9486C170.304 11.1428 170.439 11.3656 170.432 11.585C170.432 11.5933 170.434 11.6005 170.432 11.6077C170.401 11.9277 170.111 12.2213 169.624 12.4238C169.237 12.5892 168.77 12.6779 168.286 12.6779Z" fill="#F36F5B"/>
<path d="M177.592 25.1985C176.695 25.1985 175.857 24.9541 175.293 24.5286C174.738 24.1116 174.592 23.6406 174.568 23.3206C174.537 22.5501 175.041 21.9065 175.904 21.5386C176.405 21.3265 176.986 21.2139 177.588 21.2139C178.483 21.2139 179.322 21.4595 179.889 21.8838C180.38 22.2577 180.639 22.7454 180.621 23.2571C180.578 23.7101 180.356 24.4208 179.275 24.8761C178.778 25.0859 178.195 25.1985 177.592 25.1985Z" fill="#C95151"/>
<path d="M177.592 24.3178C176.894 24.3178 176.232 24.1321 175.825 23.8265C175.59 23.6503 175.459 23.4538 175.444 23.2537V23.2405L175.439 23.2309C175.428 22.9001 175.73 22.5706 176.246 22.3525C176.638 22.1847 177.101 22.0996 177.587 22.0996C178.287 22.0996 178.948 22.2818 179.361 22.591C179.612 22.7827 179.748 23.008 179.74 23.2249C179.74 23.2357 179.74 23.2405 179.74 23.2477C179.71 23.5676 179.414 23.8625 178.933 24.0662C178.543 24.2316 178.08 24.3178 177.592 24.3178Z" fill="#F36F5B"/>
<path d="M168.291 22.8629C167.393 22.8629 166.557 22.6196 165.993 22.193C165.436 21.7783 165.289 21.3062 165.265 20.985C165.236 20.2132 165.739 19.5709 166.602 19.203C167.104 18.9933 167.686 18.8806 168.286 18.8806C169.184 18.8806 170.021 19.1239 170.588 19.5505C171.079 19.922 171.337 20.4097 171.318 20.9239C171.278 21.3768 171.054 22.0851 169.975 22.5429C169.476 22.7526 168.895 22.8629 168.291 22.8629Z" fill="#C95151"/>
<path d="M168.29 21.9809C167.593 21.9809 166.93 21.7988 166.522 21.4896C166.293 21.3158 166.159 21.1169 166.142 20.9167V20.906L166.137 20.894C166.127 20.5632 166.427 20.2361 166.947 20.0144C167.337 19.8502 167.799 19.7627 168.286 19.7627C168.984 19.7627 169.646 19.9473 170.058 20.2564C170.311 20.4458 170.446 20.6711 170.437 20.888C170.437 20.8988 170.437 20.906 170.437 20.9108C170.408 21.2307 170.112 21.5267 169.631 21.7293C169.242 21.8958 168.777 21.9809 168.29 21.9809Z" fill="#F36F5B"/>
<path d="M177.592 10.4571C176.695 10.4571 175.857 10.2114 175.293 9.7872C174.738 9.37016 174.592 8.89921 174.568 8.57564C174.537 7.80507 175.041 7.16392 175.904 6.79722C176.405 6.5851 176.986 6.47485 177.588 6.47485C178.483 6.47485 179.322 6.71813 179.889 7.14476C180.38 7.51506 180.639 8.0016 180.621 8.51691C180.578 8.97229 180.356 9.68054 179.275 10.1359C178.778 10.3456 178.195 10.4571 177.592 10.4571Z" fill="#C95151"/>
<path d="M177.592 9.57512C176.894 9.57512 176.232 9.39177 175.825 9.08378C175.59 8.91001 175.459 8.70869 175.444 8.51095V8.49896L175.439 8.48577C175.428 8.15741 175.73 7.82786 176.246 7.60856C176.638 7.44198 177.101 7.35449 177.587 7.35449C178.287 7.35449 178.948 7.53905 179.361 7.84823C179.612 8.03997 179.748 8.26288 179.74 8.48098C179.74 8.49057 179.74 8.49776 179.74 8.50375C179.71 8.82492 179.414 9.11732 178.933 9.31985C178.543 9.48763 178.08 9.57512 177.592 9.57512Z" fill="#F36F5B"/>
<path d="M186.729 27.4192C185.832 27.4192 184.994 27.176 184.43 26.7493C183.872 26.3323 183.729 25.8613 183.705 25.539C183.671 24.7672 184.176 24.1273 185.041 23.7606C185.542 23.5484 186.123 23.4358 186.725 23.4358C187.62 23.4358 188.456 23.6815 189.026 24.1057C189.516 24.4784 189.776 24.9649 189.755 25.4767C189.715 25.932 189.491 26.6427 188.411 27.0981C187.911 27.3066 187.331 27.4192 186.729 27.4192Z" fill="#C95151"/>
<path d="M186.729 26.5385C186.03 26.5385 185.369 26.3539 184.961 26.0448C184.727 25.871 184.595 25.6745 184.58 25.4719V25.4599L184.576 25.4515C184.562 25.1208 184.864 24.7912 185.383 24.5719C185.775 24.4054 186.238 24.3179 186.724 24.3179C187.422 24.3179 188.085 24.5024 188.497 24.8092C188.746 25.0034 188.881 25.2287 188.874 25.4444C188.874 25.4539 188.874 25.4599 188.874 25.4671C188.843 25.7871 188.549 26.0807 188.07 26.2832C187.678 26.4498 187.216 26.5385 186.729 26.5385Z" fill="#F36F5B"/>
<path d="M201.249 15.0926C200.351 15.0926 199.515 14.8469 198.949 14.4227C198.394 14.0056 198.248 13.5346 198.222 13.2147C198.193 12.4429 198.696 11.7982 199.559 11.4327C200.063 11.2206 200.644 11.1079 201.245 11.1079C202.141 11.1079 202.98 11.3536 203.545 11.7778C204.036 12.1505 204.297 12.6371 204.275 13.1512C204.235 13.6042 204.011 14.3124 202.932 14.7702C202.434 14.9799 201.851 15.0926 201.249 15.0926Z" fill="#C95151"/>
<path d="M201.249 14.2082C200.553 14.2082 199.889 14.026 199.481 13.7193C199.251 13.5431 199.117 13.3442 199.1 13.1464V13.1332L199.098 13.1249C199.086 12.7905 199.387 12.4634 199.903 12.2428C200.295 12.0775 200.758 11.99 201.244 11.99C201.943 11.99 202.604 12.1745 203.016 12.4837C203.268 12.6731 203.404 12.8984 203.394 13.1153C203.394 13.1261 203.394 13.1332 203.394 13.138C203.364 13.458 203.072 13.7564 202.589 13.9577C202.201 14.1231 201.736 14.2082 201.249 14.2082Z" fill="#F36F5B"/>
<path d="M194.217 9.7586C193.322 9.7586 192.483 9.51293 191.916 9.0887C191.36 8.66926 191.215 8.2007 191.191 7.87833C191.16 7.10656 191.665 6.46422 192.528 6.09751C193.028 5.88779 193.612 5.77515 194.214 5.77515C195.11 5.77515 195.945 6.01843 196.514 6.44505C197.005 6.81775 197.265 7.3043 197.244 7.81841C197.204 8.2714 196.98 8.97964 195.9 9.43743C195.4 9.64475 194.818 9.7586 194.217 9.7586Z" fill="#C95151"/>
<path d="M194.218 8.87422C193.517 8.87422 192.858 8.69206 192.447 8.38528C192.216 8.20911 192.084 8.01018 192.07 7.81245L192.066 7.79926L192.065 7.78968C192.051 7.45653 192.353 7.12697 192.873 6.90886C193.262 6.74229 193.727 6.65601 194.211 6.65601C194.91 6.65601 195.571 6.84056 195.982 7.14735C196.233 7.33909 196.371 7.56438 196.361 7.78129C196.361 7.79327 196.364 7.79686 196.361 7.80406C196.33 8.12403 196.038 8.42003 195.556 8.62255C195.166 8.78793 194.703 8.87422 194.218 8.87422Z" fill="#F36F5B"/>
<path d="M196.371 26.3084C195.474 26.3084 194.635 26.0651 194.068 25.6385C193.515 25.2239 193.367 24.7517 193.344 24.4305C193.311 23.6588 193.817 23.0164 194.682 22.6509C195.179 22.4388 195.76 22.3262 196.365 22.3262C197.261 22.3262 198.096 22.5694 198.663 22.9961C199.157 23.3676 199.414 23.8553 199.395 24.367C199.353 24.8224 199.131 25.5331 198.052 25.9885C197.553 26.197 196.973 26.3084 196.371 26.3084Z" fill="#C95151"/>
<path d="M196.371 25.4288C195.671 25.4288 195.011 25.2431 194.6 24.9339C194.368 24.7601 194.236 24.5624 194.22 24.3611V24.3503L194.217 24.3383C194.203 24.01 194.505 23.6804 195.024 23.4611C195.417 23.2945 195.879 23.207 196.366 23.207C197.062 23.207 197.726 23.3892 198.136 23.6984C198.389 23.8901 198.522 24.1154 198.517 24.3335C198.517 24.3431 198.517 24.3503 198.515 24.3539C198.484 24.6762 198.191 24.9699 197.709 25.1724C197.32 25.3414 196.859 25.4288 196.371 25.4288Z" fill="#F36F5B"/>
<path d="M204.275 21.5565C203.379 21.5565 202.54 21.3133 201.975 20.889C201.42 20.472 201.274 20.001 201.25 19.6787C201.221 18.9069 201.725 18.267 202.586 17.9002C203.087 17.6881 203.671 17.5779 204.274 17.5779C205.168 17.5779 206.007 17.8212 206.573 18.2478C207.065 18.6181 207.324 19.1046 207.303 19.6187C207.263 20.0741 207.042 20.7824 205.96 21.2378C205.461 21.4475 204.878 21.5565 204.275 21.5565Z" fill="#C95151"/>
<path d="M204.277 20.6781C203.576 20.6781 202.918 20.4924 202.507 20.1856C202.275 20.0118 202.144 19.8117 202.126 19.6103V19.6008L202.124 19.5876C202.112 19.2592 202.412 18.9297 202.931 18.7103C203.322 18.5438 203.785 18.4563 204.271 18.4563C204.969 18.4563 205.63 18.6409 206.043 18.95C206.294 19.1394 206.43 19.3647 206.422 19.5828C206.422 19.5924 206.422 19.5996 206.422 19.6056C206.393 19.9255 206.098 20.2191 205.616 20.4217C205.227 20.5894 204.762 20.6781 204.277 20.6781Z" fill="#F36F5B"/>
</svg>
