<svg width="281" height="150" viewBox="0 0 281 150" fill="none" xmlns="http://www.w3.org/2000/svg">
<path d="M118.285 150C115.098 150 111.883 148.365 108.477 146.639C107.026 145.9 105.523 145.137 103.974 144.478C100.224 142.882 96.8658 142.77 93.9015 142.67C91.8559 142.604 90.089 142.544 88.3156 142.036C82.8675 140.478 78.2057 137.156 73.2705 133.639C67.8441 129.771 62.2321 125.771 55.2795 124.048C52.3402 123.32 49.4149 123.222 46.9419 123.222C46.0102 123.222 45.0763 123.239 44.1457 123.255C43.2693 123.269 42.3962 123.285 41.5306 123.285C37.5185 123.285 34.3872 122.914 32.1452 121.106C30.6028 119.861 29.4455 117.835 28.2221 115.693C27.5376 114.495 26.8305 113.254 25.9975 112.038C23.2067 107.957 19.3648 104.689 14.8874 102.579C14.0718 102.196 13.2279 101.848 12.383 101.501C10.5087 100.733 8.74077 100.008 7.73422 98.9276C5.758 96.8045 6.22548 93.4757 7.15285 88.2209C7.93814 83.7742 8.82645 78.7318 7.1778 73.9395C6.23199 71.1892 4.56381 68.9111 3.09195 66.9039C1.49644 64.7255 0.117861 62.8439 0.00722707 60.9992C-0.174993 57.9748 3.12233 52.8836 6.08124 50.521C7.54225 49.3533 9.17354 48.3145 10.8992 47.2118C13.7073 45.4179 16.6109 43.5634 19.1241 40.9442C21.3845 38.5903 23.0169 35.9407 24.595 33.3788C26.1721 30.8191 27.6635 28.3992 29.592 26.627C33.8015 22.7588 40.0577 21.8694 46.6816 20.9281C51.3477 20.2663 56.1733 19.5784 60.7418 17.8192C64.5782 16.3439 67.9363 14.2164 71.1858 12.1571C73.3931 10.7576 75.4778 9.43606 77.6482 8.34741C83.515 5.40642 90.396 3.97764 98.6859 3.97764C101.448 3.97764 104.316 4.1347 107.452 4.45534C108.839 4.59833 110.279 4.672 111.725 4.672C117.79 4.672 123.453 3.43061 128.929 2.23146C134.17 1.08432 139.122 0 144.214 0C144.588 0 144.962 0.00541433 145.336 0.0184132C149.327 0.149485 153.314 1.37137 157.534 2.66801C161.507 3.88665 165.614 5.14645 170.006 5.56567C171.228 5.68157 172.527 5.73682 173.981 5.73682C175.584 5.73682 177.189 5.66966 178.792 5.59816C180.274 5.53425 181.752 5.46709 183.223 5.46709C185.54 5.46709 187.374 5.64257 188.997 6.0152C192.532 6.83196 195.863 8.78937 199.387 10.8594C202.373 12.6121 205.459 14.4265 208.918 15.6917C212.926 17.1595 217.023 17.7423 220.983 18.3067C224.805 18.8505 228.417 19.3672 231.683 20.6248C234.222 21.603 236.501 23.282 238.913 25.0596C240.841 26.4808 242.835 27.9507 245.117 29.1835L246.363 29.8518C250.278 31.9446 253.109 33.4568 255.644 36.7629C256.525 37.9122 257.341 39.172 258.202 40.5065C260.123 43.4757 262.109 46.5477 265.187 48.9785C267.026 50.4279 269.03 51.4797 270.969 52.4969C273.834 54.0036 276.309 55.3014 277.087 57.2848C277.608 58.6117 277.42 60.4186 277.201 62.5146C277.007 64.3789 276.786 66.4923 277.068 68.6858C277.406 71.3311 278.42 73.6568 279.313 75.7095C280.013 77.3192 280.675 78.8379 280.903 80.2483C281.615 84.6646 278.277 89.3236 275.35 92.4564C274.387 93.4898 273.382 94.4907 272.373 95.4959C269.006 98.8529 265.522 102.321 263.302 106.974C262.545 108.562 262.006 110.146 261.485 111.674C260.869 113.486 260.288 115.198 259.437 116.58C256.675 121.07 250.834 122.855 244.653 124.747C241.338 125.76 237.91 126.807 234.708 128.336C230.944 130.129 227.683 132.524 224.528 134.838C222.091 136.629 219.787 138.319 217.343 139.688C214.634 141.199 212.302 141.845 209.546 141.845C207.54 141.845 205.383 141.511 202.761 141.008C200.122 140.5 197.383 140.245 194.619 140.245C190.315 140.245 186.051 140.855 181.94 142.06C179.146 142.88 176.541 144.019 174.018 145.121C170.486 146.666 167.154 148.125 163.764 148.502C163.108 148.573 162.45 148.607 161.796 148.607C158.261 148.607 154.575 147.675 150.673 146.689C147.526 145.891 144.271 145.07 140.945 144.719C139.824 144.602 138.775 144.545 137.738 144.545C135.53 144.545 133.5 144.807 131.525 145.348C129.316 145.951 127.352 146.867 125.454 147.757C123.261 148.784 121.188 149.752 119.215 149.951C118.907 149.984 118.595 150 118.285 150Z" fill="#CC1D02"/>
</svg>
